# MagicaVoxel @ Ephtracy

# group
o 

# material
mtllib BlueTwoWheeler.mtl
usemtl palette

# normals
vn -1 0 0
vn 1 0 0
vn 0 0 1
vn 0 0 -1
vn 0 -1 0
vn 0 1 0

# texcoords
vt 0.818359 0.5
vt 0.853516 0.5
vt 0.857422 0.5
vt 0.876953 0.5
vt 0.880859 0.5
vt 0.908203 0.5
vt 0.912109 0.5
vt 0.916016 0.5
vt 0.919922 0.5
vt 0.923828 0.5
vt 0.939453 0.5

# verts
v 0 2.1 -0.1
v 0 2.1 -1.1
v 0 2.2 -0.1
v 0 2.2 -0.5
v 0 2.2 -0.7
v 0 2.2 -1.1
v 0 2.3 -0.1
v 0 2.3 -0.3
v 0 2.3 -0.5
v 0 2.3 -0.7
v 0 2.3 -0.9
v 0 2.3 -1.1
v 0 2.4 -0.3
v 0 2.4 -0.9
v 0 2.5 -0.1
v 0 2.5 -0.3
v 0 2.5 -0.9
v 0 2.5 -1.1
v 0.3 2 -0.1
v 0.3 2 -0.2
v 0.3 2 -1
v 0.3 2 -1.1
v 0.3 2.1 -0.1
v 0.3 2.1 -0.2
v 0.3 2.1 -1
v 0.3 2.1 -1.1
v 0.5 2.5 -0.2
v 0.5 2.5 -0.3
v 0.5 2.5 -0.9
v 0.5 2.5 -1
v 0.5 2.6 -0.4
v 0.5 2.6 -0.6
v 0.5 2.7 -0.2
v 0.5 2.7 -0.3
v 0.5 2.7 -0.4
v 0.5 2.7 -0.6
v 0.5 2.7 -0.9
v 0.5 2.7 -1
v 0.6 2.5 0
v 0.6 2.5 -0.1
v 0.6 2.5 -0.2
v 0.6 2.5 -1
v 0.6 2.5 -1.1
v 0.6 2.5 -1.2
v 0.6 2.6 0
v 0.6 2.6 -0.1
v 0.6 2.6 -0.2
v 0.6 2.6 -1
v 0.6 2.6 -1.1
v 0.6 2.6 -1.2
v 0.6 2.7 -0.2
v 0.6 2.7 -0.3
v 0.6 2.7 -0.4
v 0.6 2.7 -0.6
v 0.6 2.7 -0.7
v 0.6 2.7 -0.8
v 0.6 2.7 -0.9
v 0.6 2.7 -1
v 0.6 2.8 -0.7
v 0.6 2.8 -0.8
v 0.6 2.9 -0.2
v 0.6 2.9 -0.3
v 0.6 2.9 -0.9
v 0.6 2.9 -1
v 0.7 2.9 -0.2
v 0.7 2.9 -0.3
v 0.7 2.9 -0.9
v 0.7 2.9 -1
v 0.7 3 -0.2
v 0.7 3 -1
v 1.2 2 -0.1
v 1.2 2 -0.2
v 1.2 2 -1
v 1.2 2 -1.1
v 1.2 2.1 -0.1
v 1.2 2.1 -0.2
v 1.2 2.1 -1
v 1.2 2.1 -1.1
v 0.5 2 -0.1
v 0.5 2 -0.2
v 0.5 2 -1
v 0.5 2 -1.1
v 0.5 2.1 -0.1
v 0.5 2.1 -0.2
v 0.5 2.1 -1
v 0.5 2.1 -1.1
v 0.7 2.5 0
v 0.7 2.5 -0.1
v 0.7 2.5 -0.2
v 0.7 2.5 -1
v 0.7 2.5 -1.1
v 0.7 2.5 -1.2
v 0.7 2.6 0
v 0.7 2.6 -0.1
v 0.7 2.6 -0.2
v 0.7 2.6 -1
v 0.7 2.6 -1.1
v 0.7 2.6 -1.2
v 1.3 2.9 -0.2
v 1.3 2.9 -1
v 1.3 3 -0.2
v 1.3 3 -1
v 1.4 2 -0.1
v 1.4 2 -0.2
v 1.4 2 -1
v 1.4 2 -1.1
v 1.4 2.1 -0.1
v 1.4 2.1 -0.2
v 1.4 2.1 -1
v 1.4 2.1 -1.1
v 1.4 2.8 -0.2
v 1.4 2.8 -1
v 1.4 2.9 -0.2
v 1.4 2.9 -1
v 1.5 2.5 -0.2
v 1.5 2.5 -0.3
v 1.5 2.5 -0.9
v 1.5 2.5 -1
v 1.5 2.6 -0.3
v 1.5 2.6 -0.9
v 1.5 2.7 -0.3
v 1.5 2.7 -0.9
v 1.5 2.8 -0.2
v 1.5 2.8 -1
v 1.6 2.1 -0.1
v 1.6 2.1 -0.2
v 1.6 2.1 -1
v 1.6 2.1 -1.1
v 1.6 2.2 -0.1
v 1.6 2.2 -0.2
v 1.6 2.2 -0.5
v 1.6 2.2 -0.7
v 1.6 2.2 -1
v 1.6 2.2 -1.1
v 1.6 2.3 -0.1
v 1.6 2.3 -0.2
v 1.6 2.3 -0.3
v 1.6 2.3 -0.5
v 1.6 2.3 -0.7
v 1.6 2.3 -0.9
v 1.6 2.3 -1
v 1.6 2.3 -1.1
v 1.6 2.5 -0.1
v 1.6 2.5 -0.2
v 1.6 2.5 -0.3
v 1.6 2.5 -0.9
v 1.6 2.5 -1
v 1.6 2.5 -1.1
v 0.6 2.5 0
v 0.6 2.6 0
v 0.7 2.5 0
v 0.7 2.6 0
v 0 2.1 -0.1
v 0 2.2 -0.1
v 0 2.3 -0.1
v 0 2.5 -0.1
v 0.1 2.1 -0.1
v 0.1 2.2 -0.1
v 0.1 2.3 -0.1
v 0.1 2.5 -0.1
v 0.2 2.1 -0.1
v 0.2 2.3 -0.1
v 0.3 2 -0.1
v 0.3 2.1 -0.1
v 0.3 2.3 -0.1
v 0.3 2.4 -0.1
v 0.5 2 -0.1
v 0.5 2.1 -0.1
v 0.5 2.3 -0.1
v 0.5 2.4 -0.1
v 0.5 2.5 -0.1
v 0.6 2.1 -0.1
v 0.6 2.3 -0.1
v 0.6 2.5 -0.1
v 0.7 2.5 -0.1
v 0.8 2.3 -0.1
v 0.8 2.4 -0.1
v 0.9 2.1 -0.1
v 0.9 2.2 -0.1
v 1 2.1 -0.1
v 1 2.2 -0.1
v 1 2.3 -0.1
v 1 2.4 -0.1
v 1 2.5 -0.1
v 1.1 2.1 -0.1
v 1.1 2.2 -0.1
v 1.1 2.3 -0.1
v 1.1 2.5 -0.1
v 1.2 2 -0.1
v 1.2 2.1 -0.1
v 1.2 2.3 -0.1
v 1.2 2.4 -0.1
v 1.4 2 -0.1
v 1.4 2.1 -0.1
v 1.4 2.3 -0.1
v 1.4 2.4 -0.1
v 1.5 2.1 -0.1
v 1.5 2.2 -0.1
v 1.5 2.3 -0.1
v 1.5 2.5 -0.1
v 1.6 2.1 -0.1
v 1.6 2.2 -0.1
v 1.6 2.3 -0.1
v 1.6 2.5 -0.1
v 0.5 2.5 -0.2
v 0.5 2.7 -0.2
v 0.6 2.5 -0.2
v 0.6 2.6 -0.2
v 0.6 2.7 -0.2
v 0.6 2.9 -0.2
v 0.7 2.5 -0.2
v 0.7 2.6 -0.2
v 0.7 2.7 -0.2
v 0.7 2.9 -0.2
v 0.7 3 -0.2
v 0.8 2.7 -0.2
v 0.8 2.8 -0.2
v 0.9 2.7 -0.2
v 0.9 2.8 -0.2
v 1 2.5 -0.2
v 1 2.9 -0.2
v 1.1 2.5 -0.2
v 1.1 2.9 -0.2
v 1.3 2.7 -0.2
v 1.3 2.8 -0.2
v 1.3 2.9 -0.2
v 1.3 3 -0.2
v 1.4 2.5 -0.2
v 1.4 2.7 -0.2
v 1.4 2.8 -0.2
v 1.4 2.9 -0.2
v 1.5 2.5 -0.2
v 1.5 2.8 -0.2
v 0.3 2 -1
v 0.3 2.1 -1
v 0.5 2 -1
v 0.5 2.1 -1
v 1.2 2 -1
v 1.2 2.1 -1
v 1.4 2 -1
v 1.4 2.1 -1
v 0.3 2 -0.2
v 0.3 2.1 -0.2
v 0.5 2 -0.2
v 0.5 2.1 -0.2
v 1.2 2 -0.2
v 1.2 2.1 -0.2
v 1.4 2 -0.2
v 1.4 2.1 -0.2
v 0.5 2.5 -1
v 0.5 2.7 -1
v 0.6 2.5 -1
v 0.6 2.6 -1
v 0.6 2.7 -1
v 0.6 2.9 -1
v 0.7 2.5 -1
v 0.7 2.6 -1
v 0.7 2.7 -1
v 0.7 2.9 -1
v 0.7 3 -1
v 0.8 2.5 -1
v 0.8 2.6 -1
v 0.9 2.5 -1
v 0.9 2.6 -1
v 1 2.5 -1
v 1 2.9 -1
v 1.1 2.5 -1
v 1.1 2.9 -1
v 1.2 2.6 -1
v 1.2 2.7 -1
v 1.3 2.6 -1
v 1.3 2.7 -1
v 1.3 2.8 -1
v 1.3 2.9 -1
v 1.3 3 -1
v 1.4 2.5 -1
v 1.4 2.8 -1
v 1.4 2.9 -1
v 1.5 2.5 -1
v 1.5 2.8 -1
v 0 2.1 -1.1
v 0 2.2 -1.1
v 0 2.3 -1.1
v 0 2.5 -1.1
v 0.1 2.1 -1.1
v 0.1 2.2 -1.1
v 0.1 2.3 -1.1
v 0.1 2.5 -1.1
v 0.2 2.1 -1.1
v 0.2 2.3 -1.1
v 0.3 2 -1.1
v 0.3 2.1 -1.1
v 0.3 2.3 -1.1
v 0.3 2.4 -1.1
v 0.5 2 -1.1
v 0.5 2.1 -1.1
v 0.5 2.3 -1.1
v 0.5 2.4 -1.1
v 0.5 2.5 -1.1
v 0.6 2.1 -1.1
v 0.6 2.3 -1.1
v 0.6 2.5 -1.1
v 0.7 2.5 -1.1
v 0.8 2.3 -1.1
v 0.8 2.4 -1.1
v 0.9 2.1 -1.1
v 0.9 2.2 -1.1
v 1 2.1 -1.1
v 1 2.2 -1.1
v 1 2.3 -1.1
v 1 2.4 -1.1
v 1 2.5 -1.1
v 1.1 2.1 -1.1
v 1.1 2.2 -1.1
v 1.1 2.3 -1.1
v 1.1 2.5 -1.1
v 1.2 2 -1.1
v 1.2 2.1 -1.1
v 1.2 2.3 -1.1
v 1.2 2.4 -1.1
v 1.4 2 -1.1
v 1.4 2.1 -1.1
v 1.4 2.3 -1.1
v 1.4 2.4 -1.1
v 1.5 2.1 -1.1
v 1.5 2.2 -1.1
v 1.5 2.3 -1.1
v 1.5 2.5 -1.1
v 1.6 2.1 -1.1
v 1.6 2.2 -1.1
v 1.6 2.3 -1.1
v 1.6 2.5 -1.1
v 0.6 2.5 -1.2
v 0.6 2.6 -1.2
v 0.7 2.5 -1.2
v 0.7 2.6 -1.2
v 0.3 2 -0.1
v 0.5 2 -0.1
v 1.2 2 -0.1
v 1.4 2 -0.1
v 0.3 2 -0.2
v 0.5 2 -0.2
v 1.2 2 -0.2
v 1.4 2 -0.2
v 0.3 2 -1
v 0.5 2 -1
v 1.2 2 -1
v 1.4 2 -1
v 0.3 2 -1.1
v 0.5 2 -1.1
v 1.2 2 -1.1
v 1.4 2 -1.1
v 0 2.1 -0.1
v 0.1 2.1 -0.1
v 0.2 2.1 -0.1
v 0.3 2.1 -0.1
v 0.5 2.1 -0.1
v 0.6 2.1 -0.1
v 0.9 2.1 -0.1
v 1 2.1 -0.1
v 1.1 2.1 -0.1
v 1.2 2.1 -0.1
v 1.4 2.1 -0.1
v 1.5 2.1 -0.1
v 1.6 2.1 -0.1
v 0.2 2.1 -0.2
v 0.3 2.1 -0.2
v 0.5 2.1 -0.2
v 0.6 2.1 -0.2
v 0.9 2.1 -0.2
v 1 2.1 -0.2
v 1.1 2.1 -0.2
v 1.2 2.1 -0.2
v 1.4 2.1 -0.2
v 1.5 2.1 -0.2
v 1.6 2.1 -0.2
v 0.2 2.1 -1
v 0.3 2.1 -1
v 0.5 2.1 -1
v 0.6 2.1 -1
v 0.9 2.1 -1
v 1 2.1 -1
v 1.1 2.1 -1
v 1.2 2.1 -1
v 1.4 2.1 -1
v 1.5 2.1 -1
v 1.6 2.1 -1
v 0 2.1 -1.1
v 0.1 2.1 -1.1
v 0.2 2.1 -1.1
v 0.3 2.1 -1.1
v 0.5 2.1 -1.1
v 0.6 2.1 -1.1
v 0.9 2.1 -1.1
v 1 2.1 -1.1
v 1.1 2.1 -1.1
v 1.2 2.1 -1.1
v 1.4 2.1 -1.1
v 1.5 2.1 -1.1
v 1.6 2.1 -1.1
v 0.6 2.5 0
v 0.7 2.5 0
v 0.6 2.5 -0.1
v 0.7 2.5 -0.1
v 0.6 2.5 -1.1
v 0.7 2.5 -1.1
v 0.6 2.5 -1.2
v 0.7 2.5 -1.2
v 0 2.5 -0.1
v 0.1 2.5 -0.1
v 0.5 2.5 -0.1
v 0.6 2.5 -0.1
v 0.7 2.5 -0.1
v 1 2.5 -0.1
v 1.1 2.5 -0.1
v 1.5 2.5 -0.1
v 1.6 2.5 -0.1
v 0.5 2.5 -0.2
v 0.6 2.5 -0.2
v 0.7 2.5 -0.2
v 1 2.5 -0.2
v 1.1 2.5 -0.2
v 1.4 2.5 -0.2
v 1.5 2.5 -0.2
v 1.6 2.5 -0.2
v 0 2.5 -0.3
v 0.1 2.5 -0.3
v 0.5 2.5 -0.3
v 1.5 2.5 -0.3
v 1.6 2.5 -0.3
v 0 2.5 -0.9
v 0.1 2.5 -0.9
v 0.5 2.5 -0.9
v 1.5 2.5 -0.9
v 1.6 2.5 -0.9
v 0.5 2.5 -1
v 0.6 2.5 -1
v 0.7 2.5 -1
v 0.8 2.5 -1
v 0.9 2.5 -1
v 1 2.5 -1
v 1.1 2.5 -1
v 1.4 2.5 -1
v 1.5 2.5 -1
v 1.6 2.5 -1
v 0 2.5 -1.1
v 0.1 2.5 -1.1
v 0.5 2.5 -1.1
v 0.6 2.5 -1.1
v 0.7 2.5 -1.1
v 1 2.5 -1.1
v 1.1 2.5 -1.1
v 1.5 2.5 -1.1
v 1.6 2.5 -1.1
v 0.6 2.6 0
v 0.7 2.6 0
v 0.6 2.6 -0.1
v 0.7 2.6 -0.1
v 0.6 2.6 -0.2
v 0.7 2.6 -0.2
v 0.6 2.6 -1
v 0.7 2.6 -1
v 0.6 2.6 -1.1
v 0.7 2.6 -1.1
v 0.6 2.6 -1.2
v 0.7 2.6 -1.2
v 0.5 2.7 -0.2
v 0.6 2.7 -0.2
v 0.5 2.7 -0.3
v 0.6 2.7 -0.3
v 0.5 2.7 -0.4
v 0.6 2.7 -0.4
v 0.5 2.7 -0.6
v 0.6 2.7 -0.6
v 0.6 2.7 -0.7
v 0.6 2.7 -0.8
v 0.5 2.7 -0.9
v 0.6 2.7 -0.9
v 0.5 2.7 -1
v 0.6 2.7 -1
v 1.4 2.8 -0.2
v 1.5 2.8 -0.2
v 1.4 2.8 -1
v 1.5 2.8 -1
v 0.6 2.9 -0.2
v 0.7 2.9 -0.2
v 1.3 2.9 -0.2
v 1.4 2.9 -0.2
v 0.6 2.9 -0.3
v 0.7 2.9 -0.3
v 0.6 2.9 -0.9
v 0.7 2.9 -0.9
v 0.6 2.9 -1
v 0.7 2.9 -1
v 1.3 2.9 -1
v 1.4 2.9 -1
v 0.7 3 -0.2
v 1.3 3 -0.2
v 0.9 3 -0.3
v 1.1 3 -0.3
v 1 3 -0.5
v 1.1 3 -0.5
v 1 3 -0.6
v 1.1 3 -0.6
v 0.9 3 -0.9
v 1.1 3 -0.9
v 0.7 3 -1
v 1.3 3 -1

# faces
f 3/6/1 2/6/1 1/6/1
f 4/6/1 2/6/1 3/6/1
f 5/6/1 2/6/1 4/6/1
f 6/6/1 2/6/1 5/6/1
f 7/3/1 4/3/1 3/3/1
f 8/3/1 4/3/1 7/3/1
f 9/8/1 5/8/1 4/8/1
f 9/3/1 4/3/1 8/3/1
f 10/3/1 6/3/1 5/3/1
f 10/8/1 5/8/1 9/8/1
f 11/3/1 6/3/1 10/3/1
f 12/3/1 6/3/1 11/3/1
f 13/8/1 8/8/1 7/8/1
f 13/7/1 9/7/1 8/7/1
f 13/7/1 10/7/1 9/7/1
f 13/7/1 11/7/1 10/7/1
f 14/8/1 12/8/1 11/8/1
f 14/7/1 11/7/1 13/7/1
f 15/8/1 13/8/1 7/8/1
f 16/3/1 14/3/1 13/3/1
f 16/8/1 13/8/1 15/8/1
f 17/8/1 12/8/1 14/8/1
f 17/3/1 14/3/1 16/3/1
f 18/8/1 12/8/1 17/8/1
f 23/7/1 20/7/1 19/7/1
f 24/7/1 20/7/1 23/7/1
f 25/7/1 22/7/1 21/7/1
f 26/7/1 22/7/1 25/7/1
f 31/9/1 29/9/1 28/9/1
f 32/9/1 29/9/1 31/9/1
f 33/3/1 28/3/1 27/3/1
f 34/9/1 31/9/1 28/9/1
f 34/3/1 28/3/1 33/3/1
f 35/10/1 32/10/1 31/10/1
f 35/9/1 31/9/1 34/9/1
f 36/9/1 29/9/1 32/9/1
f 36/10/1 32/10/1 35/10/1
f 37/3/1 30/3/1 29/3/1
f 37/9/1 29/9/1 36/9/1
f 38/3/1 30/3/1 37/3/1
f 45/2/1 40/2/1 39/2/1
f 46/3/1 41/3/1 40/3/1
f 46/2/1 40/2/1 45/2/1
f 47/3/1 41/3/1 46/3/1
f 48/3/1 43/3/1 42/3/1
f 49/2/1 44/2/1 43/2/1
f 49/3/1 43/3/1 48/3/1
f 50/2/1 44/2/1 49/2/1
f 59/9/1 53/9/1 52/9/1
f 59/9/1 54/9/1 53/9/1
f 59/9/1 55/9/1 54/9/1
f 59/10/1 56/10/1 55/10/1
f 60/9/1 57/9/1 56/9/1
f 60/10/1 56/10/1 59/10/1
f 61/3/1 52/3/1 51/3/1
f 62/9/1 59/9/1 52/9/1
f 62/3/1 52/3/1 61/3/1
f 62/9/1 60/9/1 59/9/1
f 63/9/1 57/9/1 60/9/1
f 63/9/1 60/9/1 62/9/1
f 63/3/1 58/3/1 57/3/1
f 64/3/1 58/3/1 63/3/1
f 69/3/1 66/3/1 65/3/1
f 69/3/1 68/3/1 67/3/1
f 69/3/1 67/3/1 66/3/1
f 70/3/1 68/3/1 69/3/1
f 75/7/1 72/7/1 71/7/1
f 76/7/1 72/7/1 75/7/1
f 77/7/1 74/7/1 73/7/1
f 78/7/1 74/7/1 77/7/1
f 79/7/2 80/7/2 83/7/2
f 83/7/2 80/7/2 84/7/2
f 81/7/2 82/7/2 85/7/2
f 85/7/2 82/7/2 86/7/2
f 87/2/2 88/2/2 93/2/2
f 88/3/2 89/3/2 94/3/2
f 93/2/2 88/2/2 94/2/2
f 94/3/2 89/3/2 95/3/2
f 90/3/2 91/3/2 96/3/2
f 91/2/2 92/2/2 97/2/2
f 96/3/2 91/3/2 97/3/2
f 97/2/2 92/2/2 98/2/2
f 99/3/2 100/3/2 101/3/2
f 101/3/2 100/3/2 102/3/2
f 103/7/2 104/7/2 107/7/2
f 107/7/2 104/7/2 108/7/2
f 105/7/2 106/7/2 109/7/2
f 109/7/2 106/7/2 110/7/2
f 111/3/2 112/3/2 113/3/2
f 113/3/2 112/3/2 114/3/2
f 115/3/2 116/3/2 119/3/2
f 117/3/2 118/3/2 119/3/2
f 116/3/2 117/3/2 119/3/2
f 119/3/2 118/3/2 120/3/2
f 115/3/2 119/3/2 121/3/2
f 119/9/2 120/9/2 121/9/2
f 120/3/2 118/3/2 122/3/2
f 121/9/2 120/9/2 122/9/2
f 115/3/2 121/3/2 123/3/2
f 121/3/2 122/3/2 123/3/2
f 122/3/2 118/3/2 124/3/2
f 123/3/2 122/3/2 124/3/2
f 125/11/2 126/11/2 129/11/2
f 126/6/2 127/6/2 130/6/2
f 129/11/2 126/11/2 130/11/2
f 130/6/2 127/6/2 131/6/2
f 131/6/2 127/6/2 132/6/2
f 127/11/2 128/11/2 133/11/2
f 132/6/2 127/6/2 133/6/2
f 133/11/2 128/11/2 134/11/2
f 129/3/2 130/3/2 135/3/2
f 130/3/2 131/3/2 135/3/2
f 135/3/2 131/3/2 136/3/2
f 136/3/2 131/3/2 137/3/2
f 131/8/2 132/8/2 138/8/2
f 137/3/2 131/3/2 138/3/2
f 133/3/2 134/3/2 139/3/2
f 138/8/2 132/8/2 139/8/2
f 132/3/2 133/3/2 139/3/2
f 139/3/2 134/3/2 140/3/2
f 140/3/2 134/3/2 141/3/2
f 141/3/2 134/3/2 142/3/2
f 135/4/2 136/4/2 143/4/2
f 136/8/2 137/8/2 144/8/2
f 143/4/2 136/4/2 144/4/2
f 137/3/2 138/3/2 145/3/2
f 144/8/2 137/8/2 145/8/2
f 138/3/2 139/3/2 145/3/2
f 139/3/2 140/3/2 145/3/2
f 140/8/2 141/8/2 146/8/2
f 145/3/2 140/3/2 146/3/2
f 141/4/2 142/4/2 147/4/2
f 146/8/2 141/8/2 147/8/2
f 147/4/2 142/4/2 148/4/2
f 151/2/3 150/2/3 149/2/3
f 152/2/3 150/2/3 151/2/3
f 157/6/3 154/6/3 153/6/3
f 158/3/3 155/3/3 154/3/3
f 158/6/3 154/6/3 157/6/3
f 159/8/3 156/8/3 155/8/3
f 159/3/3 155/3/3 158/3/3
f 160/8/3 156/8/3 159/8/3
f 161/3/3 158/3/3 157/3/3
f 161/3/3 159/3/3 158/3/3
f 161/3/3 160/3/3 159/3/3
f 162/3/3 160/3/3 161/3/3
f 164/7/3 162/7/3 161/7/3
f 165/3/3 160/3/3 162/3/3
f 165/7/3 162/7/3 164/7/3
f 166/3/3 160/3/3 165/3/3
f 167/7/3 164/7/3 163/7/3
f 168/6/3 165/6/3 164/6/3
f 168/7/3 164/7/3 167/7/3
f 169/7/3 166/7/3 165/7/3
f 169/6/3 165/6/3 168/6/3
f 170/3/3 160/3/3 166/3/3
f 170/7/3 166/7/3 169/7/3
f 171/3/3 160/3/3 170/3/3
f 172/7/3 169/7/3 168/7/3
f 173/1/3 171/1/3 170/1/3
f 173/7/3 169/7/3 172/7/3
f 173/1/3 170/1/3 169/1/3
f 174/1/3 171/1/3 173/1/3
f 175/3/3 173/3/3 172/3/3
f 175/3/3 174/3/3 173/3/3
f 176/3/3 175/3/3 172/3/3
f 177/3/3 175/3/3 176/3/3
f 178/3/3 176/3/3 172/3/3
f 179/3/3 176/3/3 178/3/3
f 180/1/3 179/1/3 178/1/3
f 181/3/3 176/3/3 179/3/3
f 181/1/3 179/1/3 180/1/3
f 182/5/3 177/5/3 176/5/3
f 182/3/3 176/3/3 181/3/3
f 183/3/3 175/3/3 177/3/3
f 183/5/3 177/5/3 182/5/3
f 184/3/3 175/3/3 183/3/3
f 185/3/3 181/3/3 180/3/3
f 186/1/3 182/1/3 181/1/3
f 186/3/3 181/3/3 185/3/3
f 186/1/3 183/1/3 182/1/3
f 186/1/3 184/1/3 183/1/3
f 187/1/3 184/1/3 186/1/3
f 188/1/3 184/1/3 187/1/3
f 190/7/3 186/7/3 185/7/3
f 190/7/3 187/7/3 186/7/3
f 191/3/3 188/3/3 187/3/3
f 191/7/3 187/7/3 190/7/3
f 192/3/3 188/3/3 191/3/3
f 193/7/3 190/7/3 189/7/3
f 194/6/3 191/6/3 190/6/3
f 194/7/3 190/7/3 193/7/3
f 195/7/3 192/7/3 191/7/3
f 195/6/3 191/6/3 194/6/3
f 196/3/3 188/3/3 192/3/3
f 196/7/3 192/7/3 195/7/3
f 197/7/3 195/7/3 194/7/3
f 198/7/3 195/7/3 197/7/3
f 199/3/3 196/3/3 195/3/3
f 199/7/3 195/7/3 198/7/3
f 200/3/3 188/3/3 196/3/3
f 200/3/3 196/3/3 199/3/3
f 201/11/3 198/11/3 197/11/3
f 202/3/3 199/3/3 198/3/3
f 202/11/3 198/11/3 201/11/3
f 203/4/3 200/4/3 199/4/3
f 203/3/3 199/3/3 202/3/3
f 204/4/3 200/4/3 203/4/3
f 207/3/3 206/3/3 205/3/3
f 208/3/3 206/3/3 207/3/3
f 209/3/3 206/3/3 208/3/3
f 212/9/3 209/9/3 208/9/3
f 213/3/3 210/3/3 209/3/3
f 213/9/3 209/9/3 212/9/3
f 214/3/3 210/3/3 213/3/3
f 216/9/3 212/9/3 211/9/3
f 216/9/3 213/9/3 212/9/3
f 216/9/3 214/9/3 213/9/3
f 217/9/3 214/9/3 216/9/3
f 218/9/3 216/9/3 211/9/3
f 218/10/3 217/10/3 216/10/3
f 219/9/3 214/9/3 217/9/3
f 219/10/3 217/10/3 218/10/3
f 220/9/3 218/9/3 211/9/3
f 220/9/3 219/9/3 218/9/3
f 221/3/3 215/3/3 214/3/3
f 221/9/3 219/9/3 220/9/3
f 221/9/3 214/9/3 219/9/3
f 222/3/3 221/3/3 220/3/3
f 223/3/3 215/3/3 221/3/3
f 223/3/3 221/3/3 222/3/3
f 224/9/3 223/9/3 222/9/3
f 225/9/3 223/9/3 224/9/3
f 226/3/3 215/3/3 223/3/3
f 226/9/3 223/9/3 225/9/3
f 227/3/3 215/3/3 226/3/3
f 228/9/3 224/9/3 222/9/3
f 229/10/3 225/10/3 224/10/3
f 229/9/3 224/9/3 228/9/3
f 230/3/3 226/3/3 225/3/3
f 230/10/3 225/10/3 229/10/3
f 231/3/3 226/3/3 230/3/3
f 232/3/3 229/3/3 228/3/3
f 232/3/3 230/3/3 229/3/3
f 233/3/3 230/3/3 232/3/3
f 236/7/3 235/7/3 234/7/3
f 237/7/3 235/7/3 236/7/3
f 240/7/3 239/7/3 238/7/3
f 241/7/3 239/7/3 240/7/3
f 242/7/4 243/7/4 244/7/4
f 244/7/4 243/7/4 245/7/4
f 246/7/4 247/7/4 248/7/4
f 248/7/4 247/7/4 249/7/4
f 250/3/4 251/3/4 252/3/4
f 252/3/4 251/3/4 253/3/4
f 253/3/4 251/3/4 254/3/4
f 253/9/4 254/9/4 257/9/4
f 254/3/4 255/3/4 258/3/4
f 257/9/4 254/9/4 258/9/4
f 258/3/4 255/3/4 259/3/4
f 256/9/4 257/9/4 261/9/4
f 257/9/4 258/9/4 261/9/4
f 258/9/4 259/9/4 261/9/4
f 261/9/4 259/9/4 262/9/4
f 261/10/4 262/10/4 263/10/4
f 262/9/4 259/9/4 264/9/4
f 263/10/4 262/10/4 264/10/4
f 263/9/4 264/9/4 265/9/4
f 259/3/4 260/3/4 266/3/4
f 265/9/4 264/9/4 266/9/4
f 264/9/4 259/9/4 266/9/4
f 265/3/4 266/3/4 267/3/4
f 266/3/4 260/3/4 268/3/4
f 267/3/4 266/3/4 268/3/4
f 267/9/4 268/9/4 269/9/4
f 269/9/4 268/9/4 270/9/4
f 267/9/4 269/9/4 271/9/4
f 269/10/4 270/10/4 271/10/4
f 270/9/4 268/9/4 272/9/4
f 271/10/4 270/10/4 272/10/4
f 272/9/4 268/9/4 273/9/4
f 268/3/4 260/3/4 274/3/4
f 273/9/4 268/9/4 274/9/4
f 274/3/4 260/3/4 275/3/4
f 272/9/4 273/9/4 276/9/4
f 267/9/4 271/9/4 276/9/4
f 271/9/4 272/9/4 276/9/4
f 273/3/4 274/3/4 277/3/4
f 276/9/4 273/9/4 277/9/4
f 277/3/4 274/3/4 278/3/4
f 276/3/4 277/3/4 279/3/4
f 279/3/4 277/3/4 280/3/4
f 281/6/4 282/6/4 285/6/4
f 282/3/4 283/3/4 286/3/4
f 285/6/4 282/6/4 286/6/4
f 283/8/4 284/8/4 287/8/4
f 286/3/4 283/3/4 287/3/4
f 287/8/4 284/8/4 288/8/4
f 285/3/4 286/3/4 289/3/4
f 286/3/4 287/3/4 289/3/4
f 287/3/4 288/3/4 289/3/4
f 289/3/4 288/3/4 290/3/4
f 289/7/4 290/7/4 292/7/4
f 290/3/4 288/3/4 293/3/4
f 292/7/4 290/7/4 293/7/4
f 293/3/4 288/3/4 294/3/4
f 291/7/4 292/7/4 295/7/4
f 292/6/4 293/6/4 296/6/4
f 295/7/4 292/7/4 296/7/4
f 293/7/4 294/7/4 297/7/4
f 296/6/4 293/6/4 297/6/4
f 294/3/4 288/3/4 298/3/4
f 297/7/4 294/7/4 298/7/4
f 298/3/4 288/3/4 299/3/4
f 296/7/4 297/7/4 300/7/4
f 298/1/4 299/1/4 301/1/4
f 300/7/4 297/7/4 301/7/4
f 297/1/4 298/1/4 301/1/4
f 301/1/4 299/1/4 302/1/4
f 300/3/4 301/3/4 303/3/4
f 301/3/4 302/3/4 303/3/4
f 300/3/4 303/3/4 304/3/4
f 304/3/4 303/3/4 305/3/4
f 300/3/4 304/3/4 306/3/4
f 306/3/4 304/3/4 307/3/4
f 306/1/4 307/1/4 308/1/4
f 307/3/4 304/3/4 309/3/4
f 308/1/4 307/1/4 309/1/4
f 304/5/4 305/5/4 310/5/4
f 309/3/4 304/3/4 310/3/4
f 305/3/4 303/3/4 311/3/4
f 310/5/4 305/5/4 311/5/4
f 311/3/4 303/3/4 312/3/4
f 308/3/4 309/3/4 313/3/4
f 309/1/4 310/1/4 314/1/4
f 313/3/4 309/3/4 314/3/4
f 310/1/4 311/1/4 314/1/4
f 311/1/4 312/1/4 314/1/4
f 314/1/4 312/1/4 315/1/4
f 315/1/4 312/1/4 316/1/4
f 313/7/4 314/7/4 318/7/4
f 314/7/4 315/7/4 318/7/4
f 315/3/4 316/3/4 319/3/4
f 318/7/4 315/7/4 319/7/4
f 319/3/4 316/3/4 320/3/4
f 317/7/4 318/7/4 321/7/4
f 318/6/4 319/6/4 322/6/4
f 321/7/4 318/7/4 322/7/4
f 319/7/4 320/7/4 323/7/4
f 322/6/4 319/6/4 323/6/4
f 320/3/4 316/3/4 324/3/4
f 323/7/4 320/7/4 324/7/4
f 322/7/4 323/7/4 325/7/4
f 325/7/4 323/7/4 326/7/4
f 323/3/4 324/3/4 327/3/4
f 326/7/4 323/7/4 327/7/4
f 324/3/4 316/3/4 328/3/4
f 327/3/4 324/3/4 328/3/4
f 325/11/4 326/11/4 329/11/4
f 326/3/4 327/3/4 330/3/4
f 329/11/4 326/11/4 330/11/4
f 327/4/4 328/4/4 331/4/4
f 330/3/4 327/3/4 331/3/4
f 331/4/4 328/4/4 332/4/4
f 333/2/4 334/2/4 335/2/4
f 335/2/4 334/2/4 336/2/4
f 341/7/5 338/7/5 337/7/5
f 342/7/5 338/7/5 341/7/5
f 343/7/5 340/7/5 339/7/5
f 344/7/5 340/7/5 343/7/5
f 349/7/5 346/7/5 345/7/5
f 350/7/5 346/7/5 349/7/5
f 351/7/5 348/7/5 347/7/5
f 352/7/5 348/7/5 351/7/5
f 366/3/5 355/3/5 354/3/5
f 366/7/5 356/7/5 355/7/5
f 367/7/5 356/7/5 366/7/5
f 368/7/5 358/7/5 357/7/5
f 369/3/5 359/3/5 358/3/5
f 369/7/5 358/7/5 368/7/5
f 370/1/5 360/1/5 359/1/5
f 370/3/5 359/3/5 369/3/5
f 371/3/5 361/3/5 360/3/5
f 371/1/5 360/1/5 370/1/5
f 372/7/5 362/7/5 361/7/5
f 372/3/5 361/3/5 371/3/5
f 373/7/5 362/7/5 372/7/5
f 374/7/5 364/7/5 363/7/5
f 375/11/5 365/11/5 364/11/5
f 375/7/5 364/7/5 374/7/5
f 376/11/5 365/11/5 375/11/5
f 377/3/5 374/3/5 373/3/5
f 377/3/5 373/3/5 372/3/5
f 377/3/5 367/3/5 366/3/5
f 377/3/5 375/3/5 374/3/5
f 377/3/5 368/3/5 367/3/5
f 377/3/5 372/3/5 371/3/5
f 377/3/5 369/3/5 368/3/5
f 377/3/5 366/3/5 354/3/5
f 377/3/5 371/3/5 370/3/5
f 377/3/5 370/3/5 369/3/5
f 378/3/5 375/3/5 377/3/5
f 379/3/5 375/3/5 378/3/5
f 380/3/5 375/3/5 379/3/5
f 381/3/5 375/3/5 380/3/5
f 382/3/5 375/3/5 381/3/5
f 383/3/5 375/3/5 382/3/5
f 384/3/5 375/3/5 383/3/5
f 385/3/5 375/3/5 384/3/5
f 386/6/5 376/6/5 375/6/5
f 386/3/5 375/3/5 385/3/5
f 387/6/5 376/6/5 386/6/5
f 388/6/5 354/6/5 353/6/5
f 389/3/5 377/3/5 354/3/5
f 389/6/5 354/6/5 388/6/5
f 390/7/5 378/7/5 377/7/5
f 390/3/5 377/3/5 389/3/5
f 391/7/5 378/7/5 390/7/5
f 392/7/5 380/7/5 379/7/5
f 393/3/5 381/3/5 380/3/5
f 393/7/5 380/7/5 392/7/5
f 394/1/5 382/1/5 381/1/5
f 394/3/5 381/3/5 393/3/5
f 395/3/5 383/3/5 382/3/5
f 395/1/5 382/1/5 394/1/5
f 396/7/5 384/7/5 383/7/5
f 396/3/5 383/3/5 395/3/5
f 397/7/5 384/7/5 396/7/5
f 398/7/5 386/7/5 385/7/5
f 399/11/5 387/11/5 386/11/5
f 399/7/5 386/7/5 398/7/5
f 400/11/5 387/11/5 399/11/5
f 403/2/5 402/2/5 401/2/5
f 404/2/5 402/2/5 403/2/5
f 407/2/5 406/2/5 405/2/5
f 408/2/5 406/2/5 407/2/5
f 410/3/6 411/3/6 418/3/6
f 411/1/6 412/1/6 418/1/6
f 418/1/6 412/1/6 419/1/6
f 413/3/6 414/3/6 420/3/6
f 414/1/6 415/1/6 421/1/6
f 420/3/6 414/3/6 421/3/6
f 415/3/6 416/3/6 422/3/6
f 421/1/6 415/1/6 422/1/6
f 422/3/6 416/3/6 423/3/6
f 416/4/6 417/4/6 424/4/6
f 423/3/6 416/3/6 424/3/6
f 424/4/6 417/4/6 425/4/6
f 409/8/6 410/8/6 426/8/6
f 410/3/6 418/3/6 427/3/6
f 426/8/6 410/8/6 427/8/6
f 427/3/6 418/3/6 428/3/6
f 424/8/6 425/8/6 429/8/6
f 429/8/6 425/8/6 430/8/6
f 427/3/6 428/3/6 431/3/6
f 426/3/6 427/3/6 431/3/6
f 431/3/6 428/3/6 432/3/6
f 432/3/6 428/3/6 433/3/6
f 429/3/6 430/3/6 434/3/6
f 434/3/6 430/3/6 435/3/6
f 432/3/6 433/3/6 436/3/6
f 434/8/6 435/8/6 444/8/6
f 444/8/6 435/8/6 445/8/6
f 431/8/6 432/8/6 446/8/6
f 432/3/6 436/3/6 447/3/6
f 446/8/6 432/8/6 447/8/6
f 436/1/6 437/1/6 448/1/6
f 447/3/6 436/3/6 448/3/6
f 448/1/6 437/1/6 449/1/6
f 438/3/6 439/3/6 450/3/6
f 439/3/6 440/3/6 450/3/6
f 440/3/6 441/3/6 450/3/6
f 441/1/6 442/1/6 451/1/6
f 450/3/6 441/3/6 451/3/6
f 442/3/6 443/3/6 452/3/6
f 451/1/6 442/1/6 452/1/6
f 443/3/6 444/3/6 452/3/6
f 444/4/6 445/4/6 453/4/6
f 452/3/6 444/3/6 453/3/6
f 453/4/6 445/4/6 454/4/6
f 455/2/6 456/2/6 457/2/6
f 457/2/6 456/2/6 458/2/6
f 457/3/6 458/3/6 459/3/6
f 459/3/6 458/3/6 460/3/6
f 461/3/6 462/3/6 463/3/6
f 463/3/6 462/3/6 464/3/6
f 463/2/6 464/2/6 465/2/6
f 465/2/6 464/2/6 466/2/6
f 467/3/6 468/3/6 469/3/6
f 469/3/6 468/3/6 470/3/6
f 469/9/6 470/9/6 471/9/6
f 471/9/6 470/9/6 472/9/6
f 471/10/6 472/10/6 473/10/6
f 473/10/6 472/10/6 474/10/6
f 473/9/6 474/9/6 475/9/6
f 473/9/6 475/9/6 476/9/6
f 473/9/6 476/9/6 477/9/6
f 477/9/6 476/9/6 478/9/6
f 477/3/6 478/3/6 479/3/6
f 479/3/6 478/3/6 480/3/6
f 481/3/6 482/3/6 483/3/6
f 483/3/6 482/3/6 484/3/6
f 485/3/6 486/3/6 489/3/6
f 489/3/6 486/3/6 490/3/6
f 489/9/6 490/9/6 491/9/6
f 491/9/6 490/9/6 492/9/6
f 491/3/6 492/3/6 493/3/6
f 493/3/6 492/3/6 494/3/6
f 487/3/6 488/3/6 495/3/6
f 495/3/6 488/3/6 496/3/6
f 497/3/6 498/3/6 499/3/6
f 499/3/6 498/3/6 500/3/6
f 499/9/6 500/9/6 501/9/6
f 500/3/6 498/3/6 502/3/6
f 501/9/6 500/9/6 502/9/6
f 499/9/6 501/9/6 503/9/6
f 501/10/6 502/10/6 503/10/6
f 502/3/6 498/3/6 504/3/6
f 503/10/6 502/10/6 504/10/6
f 497/3/6 499/3/6 505/3/6
f 499/9/6 503/9/6 505/9/6
f 503/9/6 504/9/6 505/9/6
f 504/3/6 498/3/6 506/3/6
f 505/9/6 504/9/6 506/9/6
f 497/3/6 505/3/6 507/3/6
f 505/3/6 506/3/6 507/3/6
f 506/3/6 498/3/6 508/3/6
f 507/3/6 506/3/6 508/3/6
