# MagicaVoxel @ Ephtracy

# group
o 

# material
mtllib terrain1.mtl
usemtl palette

# normals
vn -1 0 0
vn 1 0 0
vn 0 0 1
vn 0 0 -1
vn 0 -1 0
vn 0 1 0

# texcoords
vt 0.939453 0.5
vt 0.947266 0.5
vt 0.951172 0.5
vt 0.955078 0.5
vt 0.958984 0.5
vt 0.962891 0.5

# verts
v -1.1 0 0.6
v -1.1 0 0.0999999
v -1.1 0 -5.96046e-008
v -1.1 0 -0.5
v -1.1 0 -0.6
v -1.1 0 -1.3
v -1.1 0.1 0.0999999
v -1.1 0.1 -5.96046e-008
v -1.1 0.1 -0.5
v -1.1 0.1 -0.6
v -1.1 0.1 -1.1
v -1.1 0.1 -1.2
v -1.1 0.2 -0.8
v -1.1 0.2 -0.9
v -1.1 0.2 -1.1
v -1.1 0.2 -1.2
v -1.1 0.3 0.6
v -1.1 0.3 -0.8
v -1.1 0.3 -0.9
v -1.1 0.3 -1.3
v -1.1 0.4 0.6
v -1.1 0.4 -0.1
v -1.1 0.4 -0.2
v -1.1 0.4 -1.3
v -1.1 0.5 0.6
v -1.1 0.5 0.4
v -1.1 0.5 0.3
v -1.1 0.5 0.0999999
v -1.1 0.5 -5.96046e-008
v -1.1 0.5 -0.1
v -1.1 0.5 -0.2
v -1.1 0.5 -0.3
v -1.1 0.5 -0.8
v -1.1 0.5 -0.9
v -1.1 0.5 -1.3
v -1.1 0.6 0.6
v -1.1 0.6 0.4
v -1.1 0.6 0.3
v -1.1 0.6 0.0999999
v -1.1 0.6 -5.96046e-008
v -1.1 0.6 -0.2
v -1.1 0.6 -0.3
v -1.1 0.6 -0.8
v -1.1 0.6 -0.9
v -1.1 0.6 -1.3
v 0.7 0 0.6
v 0.7 0 0.5
v 0.7 0 -0.1
v 0.7 0 -0.2
v 0.7 0 -1.3
v 0.7 0.1 0.6
v 0.7 0.1 0.5
v 0.7 0.1 0.2
v 0.7 0.1 0.0999999
v 0.7 0.1 -0.1
v 0.7 0.1 -0.2
v 0.7 0.1 -1
v 0.7 0.1 -1.1
v 0.7 0.2 0.2
v 0.7 0.2 0.0999999
v 0.7 0.2 -0.4
v 0.7 0.2 -0.5
v 0.7 0.2 -1
v 0.7 0.2 -1.1
v 0.7 0.2 -1.2
v 0.7 0.3 0.6
v 0.7 0.3 -0.4
v 0.7 0.3 -0.5
v 0.7 0.3 -1.1
v 0.7 0.3 -1.2
v 0.7 0.3 -1.3
v 0.7 0.4 0.6
v 0.7 0.4 -0.6
v 0.7 0.4 -0.7
v 0.7 0.4 -1.3
v 0.7 0.5 0.6
v 0.7 0.5 0.4
v 0.7 0.5 0.3
v 0.7 0.5 0.0999999
v 0.7 0.5 -5.96046e-008
v 0.7 0.5 -0.2
v 0.7 0.5 -0.3
v 0.7 0.5 -0.4
v 0.7 0.5 -0.5
v 0.7 0.5 -0.6
v 0.7 0.5 -0.7
v 0.7 0.5 -1.3
v 0.7 0.6 0.6
v 0.7 0.6 0.4
v 0.7 0.6 0.3
v 0.7 0.6 0.0999999
v 0.7 0.6 -5.96046e-008
v 0.7 0.6 -0.2
v 0.7 0.6 -0.3
v 0.7 0.6 -0.4
v 0.7 0.6 -0.5
v 0.7 0.6 -1.3
v -1.1 0 0.6
v -1.1 0.3 0.6
v -1.1 0.4 0.6
v -1.1 0.5 0.6
v -1.1 0.6 0.6
v -1 0 0.6
v -1 0.1 0.6
v -0.9 0 0.6
v -0.9 0.1 0.6
v -0.7 0.4 0.6
v -0.7 0.5 0.6
v -0.6 0.4 0.6
v -0.6 0.5 0.6
v -0.3 0.2 0.6
v -0.3 0.3 0.6
v -0.2 0.2 0.6
v -0.2 0.3 0.6
v -0.2 0.5 0.6
v -0.2 0.6 0.6
v -0.1 0.5 0.6
v -0.1 0.6 0.6
v 0 0.1 0.6
v 0 0.2 0.6
v 0.1 0.1 0.6
v 0.1 0.2 0.6
v 0.2 0.5 0.6
v 0.2 0.6 0.6
v 0.3 0.5 0.6
v 0.3 0.6 0.6
v 0.4 0.2 0.6
v 0.4 0.3 0.6
v 0.5 0.2 0.6
v 0.5 0.3 0.6
v 0.6 0 0.6
v 0.6 0.1 0.6
v 0.7 0 0.6
v 0.7 0.1 0.6
v 0.7 0.3 0.6
v 0.7 0.4 0.6
v 0.7 0.5 0.6
v 0.7 0.6 0.6
v -1.1 0 -1.3
v -1.1 0.3 -1.3
v -1.1 0.4 -1.3
v -1.1 0.5 -1.3
v -1.1 0.6 -1.3
v -1 0.1 -1.3
v -1 0.2 -1.3
v -0.9 0.1 -1.3
v -0.9 0.2 -1.3
v -0.8 0.5 -1.3
v -0.8 0.6 -1.3
v -0.7 0 -1.3
v -0.7 0.1 -1.3
v -0.7 0.5 -1.3
v -0.7 0.6 -1.3
v -0.6 0 -1.3
v -0.6 0.1 -1.3
v -0.5 0.4 -1.3
v -0.5 0.5 -1.3
v -0.4 0.4 -1.3
v -0.4 0.5 -1.3
v -0.2 0.2 -1.3
v -0.2 0.3 -1.3
v -0.1 0.2 -1.3
v -0.1 0.3 -1.3
v 0.3 0 -1.3
v 0.3 0.1 -1.3
v 0.4 0 -1.3
v 0.4 0.1 -1.3
v 0.5 0.2 -1.3
v 0.5 0.3 -1.3
v 0.5 0.5 -1.3
v 0.5 0.6 -1.3
v 0.6 0.2 -1.3
v 0.6 0.3 -1.3
v 0.6 0.5 -1.3
v 0.6 0.6 -1.3
v 0.7 0 -1.3
v 0.7 0.3 -1.3
v 0.7 0.4 -1.3
v 0.7 0.5 -1.3
v 0.7 0.6 -1.3
v -1.1 0 0.6
v -1 0 0.6
v -0.9 0 0.6
v 0.6 0 0.6
v 0.7 0 0.6
v -1 0 0.5
v -0.9 0 0.5
v 0.6 0 0.5
v 0.7 0 0.5
v -1.1 0 0.0999999
v -1 0 0.0999999
v -1.1 0 -5.96046e-008
v -1 0 -5.96046e-008
v 0.6 0 -0.1
v 0.7 0 -0.1
v 0.6 0 -0.2
v 0.7 0 -0.2
v -1.1 0 -0.5
v -1 0 -0.5
v -1.1 0 -0.6
v -1 0 -0.6
v -0.7 0 -1.2
v -0.6 0 -1.2
v 0.3 0 -1.2
v 0.4 0 -1.2
v -1.1 0 -1.3
v -0.7 0 -1.3
v -0.6 0 -1.3
v 0.3 0 -1.3
v 0.4 0 -1.3
v 0.7 0 -1.3
v -1.1 0.6 0.6
v -0.2 0.6 0.6
v -0.1 0.6 0.6
v 0.2 0.6 0.6
v 0.3 0.6 0.6
v 0.7 0.6 0.6
v -0.8 0.6 0.5
v -0.7 0.6 0.5
v -0.2 0.6 0.5
v -0.1 0.6 0.5
v 0.2 0.6 0.5
v 0.3 0.6 0.5
v 0.4 0.6 0.5
v 0.5 0.6 0.5
v -1.1 0.6 0.4
v -0.8 0.6 0.4
v -0.7 0.6 0.4
v 0.4 0.6 0.4
v 0.5 0.6 0.4
v 0.7 0.6 0.4
v -1.1 0.6 0.3
v 0.7 0.6 0.3
v -1.1 0.6 0.0999999
v -0.9 0.6 0.0999999
v -0.7 0.6 0.0999999
v -0.5 0.6 0.0999999
v -0.3 0.6 0.0999999
v -0.1 0.6 0.0999999
v 0.1 0.6 0.0999999
v 0.3 0.6 0.0999999
v 0.5 0.6 0.0999999
v 0.7 0.6 0.0999999
v -1.1 0.6 -5.96046e-008
v -0.9 0.6 -5.96046e-008
v -0.7 0.6 -5.96046e-008
v -0.5 0.6 -5.96046e-008
v -0.3 0.6 -5.96046e-008
v -0.1 0.6 -5.96046e-008
v 0.1 0.6 -5.96046e-008
v 0.3 0.6 -5.96046e-008
v 0.5 0.6 -5.96046e-008
v 0.7 0.6 -5.96046e-008
v -1.1 0.6 -0.2
v 0.7 0.6 -0.2
v -1.1 0.6 -0.3
v 0.7 0.6 -0.3
v -1 0.6 -0.4
v -0.9 0.6 -0.4
v 0.6 0.6 -0.4
v 0.7 0.6 -0.4
v -1 0.6 -0.5
v -0.9 0.6 -0.5
v 0 0.6 -0.5
v 0.1 0.6 -0.5
v 0.6 0.6 -0.5
v 0.7 0.6 -0.5
v 0 0.6 -0.6
v 0.1 0.6 -0.6
v -0.8 0.6 -0.7
v -0.7 0.6 -0.7
v -0.3 0.6 -0.7
v -0.2 0.6 -0.7
v 0.4 0.6 -0.7
v 0.5 0.6 -0.7
v -1.1 0.6 -0.8
v -1 0.6 -0.8
v -0.8 0.6 -0.8
v -0.7 0.6 -0.8
v -0.3 0.6 -0.8
v -0.2 0.6 -0.8
v 0.4 0.6 -0.8
v 0.5 0.6 -0.8
v -1.1 0.6 -0.9
v -1 0.6 -0.9
v -0.6 0.6 -1
v -0.5 0.6 -1
v 0.2 0.6 -1
v 0.3 0.6 -1
v -0.6 0.6 -1.1
v -0.5 0.6 -1.1
v -0.2 0.6 -1.1
v -0.1 0.6 -1.1
v 0.2 0.6 -1.1
v 0.3 0.6 -1.1
v -0.8 0.6 -1.2
v -0.7 0.6 -1.2
v -0.2 0.6 -1.2
v -0.1 0.6 -1.2
v 0.5 0.6 -1.2
v 0.6 0.6 -1.2
v -1.1 0.6 -1.3
v -0.8 0.6 -1.3
v -0.7 0.6 -1.3
v 0.5 0.6 -1.3
v 0.6 0.6 -1.3
v 0.7 0.6 -1.3

# faces
f 7/1/1 2/1/1 1/1/1
f 7/2/1 3/2/1 2/2/1
f 8/1/1 4/1/1 3/1/1
f 8/2/1 3/2/1 7/2/1
f 9/2/1 5/2/1 4/2/1
f 9/1/1 4/1/1 8/1/1
f 10/1/1 6/1/1 5/1/1
f 10/2/1 5/2/1 9/2/1
f 11/1/1 6/1/1 10/1/1
f 12/1/1 6/1/1 11/1/1
f 13/1/1 9/1/1 8/1/1
f 13/1/1 8/1/1 7/1/1
f 13/1/1 10/1/1 9/1/1
f 13/1/1 11/1/1 10/1/1
f 14/1/1 11/1/1 13/1/1
f 15/2/1 12/2/1 11/2/1
f 15/1/1 11/1/1 14/1/1
f 16/1/1 6/1/1 12/1/1
f 16/2/1 12/2/1 15/2/1
f 17/1/1 7/1/1 1/1/1
f 17/1/1 13/1/1 7/1/1
f 18/2/1 14/2/1 13/2/1
f 18/1/1 13/1/1 17/1/1
f 19/1/1 15/1/1 14/1/1
f 19/2/1 14/2/1 18/2/1
f 19/1/1 16/1/1 15/1/1
f 20/1/1 6/1/1 16/1/1
f 20/1/1 16/1/1 19/1/1
f 21/2/1 18/2/1 17/2/1
f 21/2/1 19/2/1 18/2/1
f 21/2/1 20/2/1 19/2/1
f 22/2/1 20/2/1 21/2/1
f 23/2/1 20/2/1 22/2/1
f 24/2/1 20/2/1 23/2/1
f 25/4/1 22/4/1 21/4/1
f 26/4/1 22/4/1 25/4/1
f 27/4/1 22/4/1 26/4/1
f 28/4/1 22/4/1 27/4/1
f 29/4/1 22/4/1 28/4/1
f 30/2/1 23/2/1 22/2/1
f 30/4/1 22/4/1 29/4/1
f 31/4/1 24/4/1 23/4/1
f 31/2/1 23/2/1 30/2/1
f 32/4/1 24/4/1 31/4/1
f 33/4/1 24/4/1 32/4/1
f 34/4/1 24/4/1 33/4/1
f 35/4/1 24/4/1 34/4/1
f 36/3/1 26/3/1 25/3/1
f 37/5/1 27/5/1 26/5/1
f 37/3/1 26/3/1 36/3/1
f 38/6/1 28/6/1 27/6/1
f 38/5/1 27/5/1 37/5/1
f 39/5/1 29/5/1 28/5/1
f 39/6/1 28/6/1 38/6/1
f 40/6/1 30/6/1 29/6/1
f 40/5/1 29/5/1 39/5/1
f 40/6/1 31/6/1 30/6/1
f 41/5/1 32/5/1 31/5/1
f 41/6/1 31/6/1 40/6/1
f 42/3/1 33/3/1 32/3/1
f 42/5/1 32/5/1 41/5/1
f 43/4/1 34/4/1 33/4/1
f 43/3/1 33/3/1 42/3/1
f 44/3/1 35/3/1 34/3/1
f 44/4/1 34/4/1 43/4/1
f 45/3/1 35/3/1 44/3/1
f 46/2/2 47/2/2 51/2/2
f 47/1/2 48/1/2 52/1/2
f 51/2/2 47/2/2 52/2/2
f 52/1/2 48/1/2 53/1/2
f 53/1/2 48/1/2 54/1/2
f 48/2/2 49/2/2 55/2/2
f 54/1/2 48/1/2 55/1/2
f 49/1/2 50/1/2 56/1/2
f 55/2/2 49/2/2 56/2/2
f 56/1/2 50/1/2 57/1/2
f 57/1/2 50/1/2 58/1/2
f 53/2/2 54/2/2 59/2/2
f 51/1/2 52/1/2 59/1/2
f 52/1/2 53/1/2 59/1/2
f 54/1/2 55/1/2 60/1/2
f 59/2/2 54/2/2 60/2/2
f 56/1/2 57/1/2 60/1/2
f 55/1/2 56/1/2 60/1/2
f 60/1/2 57/1/2 61/1/2
f 61/1/2 57/1/2 62/1/2
f 57/2/2 58/2/2 63/2/2
f 62/1/2 57/1/2 63/1/2
f 58/1/2 50/1/2 64/1/2
f 63/2/2 58/2/2 64/2/2
f 64/1/2 50/1/2 65/1/2
f 51/1/2 59/1/2 66/1/2
f 59/1/2 60/1/2 66/1/2
f 60/1/2 61/1/2 66/1/2
f 61/2/2 62/2/2 67/2/2
f 66/1/2 61/1/2 67/1/2
f 62/1/2 63/1/2 68/1/2
f 67/2/2 62/2/2 68/2/2
f 63/1/2 64/1/2 68/1/2
f 64/2/2 65/2/2 69/2/2
f 68/1/2 64/1/2 69/1/2
f 65/1/2 50/1/2 70/1/2
f 69/2/2 65/2/2 70/2/2
f 70/1/2 50/1/2 71/1/2
f 68/2/2 69/2/2 72/2/2
f 66/2/2 67/2/2 72/2/2
f 70/2/2 71/2/2 72/2/2
f 69/2/2 70/2/2 72/2/2
f 67/2/2 68/2/2 72/2/2
f 72/2/2 71/2/2 73/2/2
f 73/2/2 71/2/2 74/2/2
f 74/2/2 71/2/2 75/2/2
f 72/4/2 73/4/2 76/4/2
f 76/4/2 73/4/2 77/4/2
f 77/4/2 73/4/2 78/4/2
f 78/4/2 73/4/2 79/4/2
f 79/4/2 73/4/2 80/4/2
f 80/4/2 73/4/2 81/4/2
f 81/4/2 73/4/2 82/4/2
f 82/4/2 73/4/2 83/4/2
f 83/4/2 73/4/2 84/4/2
f 73/2/2 74/2/2 85/2/2
f 84/4/2 73/4/2 85/4/2
f 74/4/2 75/4/2 86/4/2
f 85/2/2 74/2/2 86/2/2
f 86/4/2 75/4/2 87/4/2
f 76/3/2 77/3/2 88/3/2
f 77/5/2 78/5/2 89/5/2
f 88/3/2 77/3/2 89/3/2
f 78/6/2 79/6/2 90/6/2
f 89/5/2 78/5/2 90/5/2
f 79/5/2 80/5/2 91/5/2
f 90/6/2 79/6/2 91/6/2
f 80/6/2 81/6/2 92/6/2
f 91/5/2 80/5/2 92/5/2
f 81/5/2 82/5/2 93/5/2
f 92/6/2 81/6/2 93/6/2
f 82/3/2 83/3/2 94/3/2
f 93/5/2 82/5/2 94/5/2
f 83/4/2 84/4/2 95/4/2
f 94/3/2 83/3/2 95/3/2
f 84/3/2 85/3/2 96/3/2
f 95/4/2 84/4/2 96/4/2
f 85/3/2 86/3/2 96/3/2
f 86/3/2 87/3/2 96/3/2
f 96/3/2 87/3/2 97/3/2
f 103/1/3 99/1/3 98/1/3
f 104/1/3 99/1/3 103/1/3
f 105/2/3 104/2/3 103/2/3
f 106/1/3 99/1/3 104/1/3
f 106/2/3 104/2/3 105/2/3
f 107/2/3 100/2/3 99/2/3
f 107/4/3 101/4/3 100/4/3
f 108/3/3 102/3/3 101/3/3
f 108/4/3 101/4/3 107/4/3
f 109/2/3 107/2/3 99/2/3
f 109/2/3 108/2/3 107/2/3
f 110/3/3 102/3/3 108/3/3
f 110/2/3 108/2/3 109/2/3
f 111/1/3 99/1/3 106/1/3
f 111/1/3 106/1/3 105/1/3
f 112/2/3 109/2/3 99/2/3
f 112/1/3 99/1/3 111/1/3
f 113/1/3 111/1/3 105/1/3
f 113/2/3 112/2/3 111/2/3
f 114/2/3 109/2/3 112/2/3
f 114/2/3 112/2/3 113/2/3
f 115/3/3 102/3/3 110/3/3
f 115/4/3 110/4/3 109/4/3
f 116/3/3 102/3/3 115/3/3
f 117/4/3 115/4/3 109/4/3
f 117/4/3 116/4/3 115/4/3
f 118/4/3 116/4/3 117/4/3
f 119/1/3 113/1/3 105/1/3
f 119/1/3 114/1/3 113/1/3
f 120/1/3 114/1/3 119/1/3
f 121/1/3 119/1/3 105/1/3
f 121/2/3 120/2/3 119/2/3
f 122/1/3 114/1/3 120/1/3
f 122/2/3 120/2/3 121/2/3
f 123/3/3 118/3/3 117/3/3
f 123/4/3 117/4/3 109/4/3
f 124/3/3 118/3/3 123/3/3
f 125/4/3 123/4/3 109/4/3
f 125/4/3 124/4/3 123/4/3
f 126/4/3 124/4/3 125/4/3
f 127/1/3 114/1/3 122/1/3
f 127/1/3 122/1/3 121/1/3
f 128/2/3 109/2/3 114/2/3
f 128/1/3 114/1/3 127/1/3
f 129/1/3 127/1/3 121/1/3
f 129/2/3 128/2/3 127/2/3
f 130/2/3 109/2/3 128/2/3
f 130/2/3 128/2/3 129/2/3
f 131/1/3 129/1/3 121/1/3
f 131/1/3 121/1/3 105/1/3
f 131/1/3 130/1/3 129/1/3
f 132/1/3 130/1/3 131/1/3
f 133/2/3 132/2/3 131/2/3
f 134/1/3 130/1/3 132/1/3
f 134/2/3 132/2/3 133/2/3
f 135/2/3 109/2/3 130/2/3
f 135/1/3 130/1/3 134/1/3
f 136/4/3 125/4/3 109/4/3
f 136/2/3 109/2/3 135/2/3
f 137/3/3 126/3/3 125/3/3
f 137/4/3 125/4/3 136/4/3
f 138/3/3 126/3/3 137/3/3
f 139/1/4 140/1/4 144/1/4
f 144/1/4 140/1/4 145/1/4
f 139/1/4 144/1/4 146/1/4
f 144/2/4 145/2/4 146/2/4
f 145/1/4 140/1/4 147/1/4
f 146/2/4 145/2/4 147/2/4
f 142/3/4 143/3/4 148/3/4
f 141/4/4 142/4/4 148/4/4
f 148/3/4 143/3/4 149/3/4
f 146/1/4 147/1/4 150/1/4
f 139/1/4 146/1/4 150/1/4
f 150/1/4 147/1/4 151/1/4
f 148/4/4 149/4/4 152/4/4
f 141/4/4 148/4/4 152/4/4
f 152/4/4 149/4/4 153/4/4
f 150/2/4 151/2/4 154/2/4
f 151/1/4 147/1/4 155/1/4
f 154/2/4 151/2/4 155/2/4
f 140/2/4 141/2/4 156/2/4
f 141/4/4 152/4/4 156/4/4
f 152/3/4 153/3/4 157/3/4
f 156/4/4 152/4/4 157/4/4
f 140/2/4 156/2/4 158/2/4
f 156/2/4 157/2/4 158/2/4
f 157/3/4 153/3/4 159/3/4
f 158/2/4 157/2/4 159/2/4
f 147/1/4 140/1/4 160/1/4
f 155/1/4 147/1/4 160/1/4
f 154/1/4 155/1/4 160/1/4
f 140/2/4 158/2/4 161/2/4
f 160/1/4 140/1/4 161/1/4
f 154/1/4 160/1/4 162/1/4
f 160/2/4 161/2/4 162/2/4
f 161/2/4 158/2/4 163/2/4
f 162/2/4 161/2/4 163/2/4
f 154/1/4 162/1/4 164/1/4
f 162/1/4 163/1/4 164/1/4
f 164/1/4 163/1/4 165/1/4
f 164/2/4 165/2/4 166/2/4
f 165/1/4 163/1/4 167/1/4
f 166/2/4 165/2/4 167/2/4
f 166/1/4 167/1/4 168/1/4
f 167/1/4 163/1/4 168/1/4
f 163/2/4 158/2/4 169/2/4
f 168/1/4 163/1/4 169/1/4
f 159/3/4 153/3/4 170/3/4
f 158/4/4 159/4/4 170/4/4
f 170/3/4 153/3/4 171/3/4
f 168/2/4 169/2/4 172/2/4
f 166/1/4 168/1/4 172/1/4
f 169/2/4 158/2/4 173/2/4
f 172/2/4 169/2/4 173/2/4
f 170/4/4 171/4/4 174/4/4
f 158/4/4 170/4/4 174/4/4
f 174/4/4 171/4/4 175/4/4
f 166/1/4 172/1/4 176/1/4
f 172/1/4 173/1/4 176/1/4
f 173/2/4 158/2/4 177/2/4
f 176/1/4 173/1/4 177/1/4
f 158/4/4 174/4/4 178/4/4
f 177/2/4 158/2/4 178/2/4
f 174/3/4 175/3/4 179/3/4
f 178/4/4 174/4/4 179/4/4
f 179/3/4 175/3/4 180/3/4
f 186/1/5 182/1/5 181/1/5
f 186/2/5 183/2/5 182/2/5
f 187/1/5 184/1/5 183/1/5
f 187/2/5 183/2/5 186/2/5
f 188/2/5 185/2/5 184/2/5
f 188/1/5 184/1/5 187/1/5
f 189/2/5 185/2/5 188/2/5
f 190/1/5 187/1/5 186/1/5
f 190/1/5 186/1/5 181/1/5
f 190/1/5 189/1/5 188/1/5
f 190/1/5 188/1/5 187/1/5
f 191/1/5 189/1/5 190/1/5
f 192/2/5 191/2/5 190/2/5
f 193/1/5 189/1/5 191/1/5
f 193/2/5 191/2/5 192/2/5
f 194/1/5 193/1/5 192/1/5
f 194/1/5 189/1/5 193/1/5
f 195/1/5 189/1/5 194/1/5
f 196/1/5 194/1/5 192/1/5
f 196/2/5 195/2/5 194/2/5
f 197/2/5 195/2/5 196/2/5
f 198/1/5 196/1/5 192/1/5
f 198/1/5 197/1/5 196/1/5
f 199/1/5 197/1/5 198/1/5
f 200/2/5 199/2/5 198/2/5
f 201/1/5 197/1/5 199/1/5
f 201/2/5 199/2/5 200/2/5
f 202/1/5 201/1/5 200/1/5
f 202/1/5 197/1/5 201/1/5
f 203/1/5 197/1/5 202/1/5
f 204/1/5 197/1/5 203/1/5
f 205/1/5 197/1/5 204/1/5
f 206/1/5 202/1/5 200/1/5
f 207/2/5 203/2/5 202/2/5
f 207/1/5 202/1/5 206/1/5
f 208/1/5 204/1/5 203/1/5
f 208/2/5 203/2/5 207/2/5
f 209/2/5 205/2/5 204/2/5
f 209/1/5 204/1/5 208/1/5
f 210/1/5 197/1/5 205/1/5
f 210/2/5 205/2/5 209/2/5
f 211/1/5 197/1/5 210/1/5
f 212/3/6 213/3/6 218/3/6
f 218/3/6 213/3/6 219/3/6
f 213/4/6 214/4/6 220/4/6
f 219/3/6 213/3/6 220/3/6
f 214/3/6 215/3/6 221/3/6
f 220/4/6 214/4/6 221/4/6
f 215/4/6 216/4/6 222/4/6
f 221/3/6 215/3/6 222/3/6
f 216/3/6 217/3/6 223/3/6
f 222/4/6 216/4/6 223/4/6
f 223/3/6 217/3/6 224/3/6
f 224/3/6 217/3/6 225/3/6
f 212/3/6 218/3/6 226/3/6
f 218/4/6 219/4/6 227/4/6
f 226/3/6 218/3/6 227/3/6
f 221/3/6 222/3/6 228/3/6
f 227/4/6 219/4/6 228/4/6
f 219/3/6 220/3/6 228/3/6
f 220/3/6 221/3/6 228/3/6
f 223/3/6 224/3/6 228/3/6
f 222/3/6 223/3/6 228/3/6
f 224/4/6 225/4/6 229/4/6
f 228/3/6 224/3/6 229/3/6
f 225/3/6 217/3/6 230/3/6
f 229/4/6 225/4/6 230/4/6
f 230/3/6 217/3/6 231/3/6
f 226/5/6 227/5/6 232/5/6
f 227/5/6 228/5/6 232/5/6
f 230/5/6 231/5/6 232/5/6
f 229/5/6 230/5/6 232/5/6
f 228/5/6 229/5/6 232/5/6
f 232/5/6 231/5/6 233/5/6
f 232/6/6 233/6/6 234/6/6
f 234/6/6 233/6/6 235/6/6
f 235/6/6 233/6/6 236/6/6
f 236/6/6 233/6/6 237/6/6
f 237/6/6 233/6/6 238/6/6
f 238/6/6 233/6/6 239/6/6
f 239/6/6 233/6/6 240/6/6
f 240/6/6 233/6/6 241/6/6
f 241/6/6 233/6/6 242/6/6
f 242/6/6 233/6/6 243/6/6
f 234/5/6 235/5/6 244/5/6
f 235/6/6 236/6/6 245/6/6
f 244/5/6 235/5/6 245/5/6
f 236/5/6 237/5/6 246/5/6
f 245/6/6 236/6/6 246/6/6
f 237/6/6 238/6/6 247/6/6
f 246/5/6 237/5/6 247/5/6
f 238/5/6 239/5/6 248/5/6
f 247/6/6 238/6/6 248/6/6
f 239/6/6 240/6/6 249/6/6
f 248/5/6 239/5/6 249/5/6
f 240/5/6 241/5/6 250/5/6
f 249/6/6 240/6/6 250/6/6
f 241/6/6 242/6/6 251/6/6
f 250/5/6 241/5/6 251/5/6
f 242/5/6 243/5/6 252/5/6
f 251/6/6 242/6/6 252/6/6
f 252/5/6 243/5/6 253/5/6
f 244/6/6 245/6/6 254/6/6
f 245/6/6 246/6/6 254/6/6
f 252/6/6 253/6/6 254/6/6
f 251/6/6 252/6/6 254/6/6
f 250/6/6 251/6/6 254/6/6
f 249/6/6 250/6/6 254/6/6
f 248/6/6 249/6/6 254/6/6
f 247/6/6 248/6/6 254/6/6
f 246/6/6 247/6/6 254/6/6
f 254/6/6 253/6/6 255/6/6
f 254/5/6 255/5/6 256/5/6
f 256/5/6 255/5/6 257/5/6
f 256/3/6 257/3/6 258/3/6
f 258/3/6 257/3/6 259/3/6
f 259/3/6 257/3/6 260/3/6
f 260/3/6 257/3/6 261/3/6
f 256/3/6 258/3/6 262/3/6
f 258/4/6 259/4/6 262/4/6
f 259/3/6 260/3/6 263/3/6
f 262/4/6 259/4/6 263/4/6
f 263/3/6 260/3/6 264/3/6
f 264/3/6 260/3/6 265/3/6
f 260/4/6 261/4/6 266/4/6
f 265/3/6 260/3/6 266/3/6
f 266/4/6 261/4/6 267/4/6
f 264/4/6 265/4/6 268/4/6
f 262/3/6 263/3/6 268/3/6
f 263/3/6 264/3/6 268/3/6
f 266/3/6 267/3/6 269/3/6
f 268/4/6 265/4/6 269/4/6
f 265/3/6 266/3/6 269/3/6
f 262/3/6 268/3/6 270/3/6
f 268/3/6 269/3/6 270/3/6
f 270/3/6 269/3/6 271/3/6
f 271/3/6 269/3/6 272/3/6
f 272/3/6 269/3/6 273/3/6
f 269/3/6 267/3/6 274/3/6
f 273/3/6 269/3/6 274/3/6
f 274/3/6 267/3/6 275/3/6
f 256/3/6 262/3/6 276/3/6
f 262/3/6 270/3/6 276/3/6
f 276/3/6 270/3/6 277/3/6
f 270/4/6 271/4/6 278/4/6
f 277/3/6 270/3/6 278/3/6
f 271/3/6 272/3/6 279/3/6
f 278/4/6 271/4/6 279/4/6
f 272/4/6 273/4/6 280/4/6
f 279/3/6 272/3/6 280/3/6
f 273/3/6 274/3/6 281/3/6
f 280/4/6 273/4/6 281/4/6
f 274/4/6 275/4/6 282/4/6
f 281/3/6 274/3/6 282/3/6
f 275/3/6 267/3/6 283/3/6
f 282/4/6 275/4/6 283/4/6
f 276/4/6 277/4/6 284/4/6
f 281/3/6 282/3/6 285/3/6
f 284/4/6 277/4/6 285/4/6
f 278/3/6 279/3/6 285/3/6
f 282/3/6 283/3/6 285/3/6
f 280/3/6 281/3/6 285/3/6
f 279/3/6 280/3/6 285/3/6
f 277/3/6 278/3/6 285/3/6
f 284/3/6 285/3/6 286/3/6
f 285/3/6 283/3/6 286/3/6
f 286/3/6 283/3/6 287/3/6
f 287/3/6 283/3/6 288/3/6
f 288/3/6 283/3/6 289/3/6
f 284/3/6 286/3/6 290/3/6
f 286/4/6 287/4/6 290/4/6
f 287/3/6 288/3/6 291/3/6
f 290/4/6 287/4/6 291/4/6
f 291/3/6 288/3/6 292/3/6
f 292/3/6 288/3/6 293/3/6
f 288/4/6 289/4/6 294/4/6
f 293/3/6 288/3/6 294/3/6
f 289/3/6 283/3/6 295/3/6
f 294/4/6 289/4/6 295/4/6
f 284/3/6 290/3/6 296/3/6
f 290/3/6 291/3/6 296/3/6
f 291/3/6 292/3/6 296/3/6
f 296/3/6 292/3/6 297/3/6
f 292/4/6 293/4/6 298/4/6
f 297/3/6 292/3/6 298/3/6
f 293/3/6 294/3/6 299/3/6
f 298/4/6 293/4/6 299/4/6
f 294/3/6 295/3/6 299/3/6
f 283/3/6 267/3/6 300/3/6
f 299/3/6 295/3/6 300/3/6
f 295/3/6 283/3/6 300/3/6
f 300/3/6 267/3/6 301/3/6
f 284/3/6 296/3/6 302/3/6
f 296/4/6 297/4/6 303/4/6
f 302/3/6 296/3/6 303/3/6
f 298/3/6 299/3/6 304/3/6
f 303/4/6 297/4/6 304/4/6
f 297/3/6 298/3/6 304/3/6
f 299/3/6 300/3/6 304/3/6
f 300/4/6 301/4/6 305/4/6
f 304/3/6 300/3/6 305/3/6
f 301/3/6 267/3/6 306/3/6
f 305/4/6 301/4/6 306/4/6
f 306/3/6 267/3/6 307/3/6
